<svg width="321" height="360" viewBox="0 0 321 360" fill="none" xmlns="http://www.w3.org/2000/svg">
<path d="M317.824 318.888L317.849 318.878C318.322 318.684 318.728 318.355 319.015 317.932C319.301 317.512 319.457 317.017 319.465 316.509V12.9704V12.9698C319.465 12.4665 319.321 11.9736 319.049 11.5494C318.777 11.1252 318.389 10.7874 317.931 10.5763C317.473 10.3652 316.963 10.2896 316.463 10.3587C315.966 10.4275 315.499 10.6364 315.116 10.9608C304.994 19.7994 294.377 28.932 283.265 38.3586M317.824 318.888L282.295 37.2148M317.824 318.888L317.799 318.899M317.824 318.888L317.799 318.899M283.265 38.3586L282.295 37.2148M283.265 38.3586C283.265 38.3582 283.266 38.3578 283.266 38.3574L282.295 37.2148M283.265 38.3586C269.614 49.9696 255.809 61.8634 241.851 74.0401C227.886 86.2224 214.075 98.2045 200.417 109.986M282.295 37.2148C268.638 48.8304 254.828 60.7287 240.865 72.9098C226.902 85.0908 213.092 97.0716 199.435 108.852M200.417 109.986L199.435 108.852M200.417 109.986L200.415 109.988M200.417 109.986L200.415 109.988M199.435 108.852L200.415 109.988M199.435 108.852L200.415 109.988M317.799 318.899L239.964 354.099L239.962 354.1M317.799 318.899L239.962 354.1M239.962 354.1C239.564 354.281 239.128 354.358 238.692 354.326C238.257 354.294 237.836 354.153 237.469 353.917C237.103 353.68 236.802 353.355 236.594 352.972C236.386 352.589 236.278 352.16 236.28 351.725V351.72M239.962 354.1L236.28 351.72M236.28 351.72V187.326C236.301 186.205 235.987 185.103 235.378 184.162C234.766 183.215 233.884 182.474 232.846 182.034C231.809 181.593 230.663 181.473 229.557 181.69C228.462 181.904 227.455 182.439 226.664 183.225C208.713 199.835 185.146 209.063 160.677 209.063C136.235 209.063 112.694 199.855 94.7508 183.281L94.3963 182.839L94.3461 182.776M236.28 351.72L94.3461 182.776M94.3461 182.776L94.2894 182.719M94.3461 182.776L94.2894 182.719M94.2894 182.719C93.4948 181.92 92.4787 181.377 91.3725 181.16M94.2894 182.719L91.3725 181.16M91.3725 181.16C90.2662 180.943 89.1203 181.063 88.0827 181.503M91.3725 181.16L88.0827 181.503M88.0827 181.503C87.0451 181.944 86.1632 182.685 85.5512 183.632M88.0827 181.503L85.5512 183.632M85.5512 183.632C84.9424 184.573 84.6284 185.675 84.6496 186.796M85.5512 183.632L84.6496 186.796M84.6496 186.796V354.897C84.647 355.381 84.5108 355.856 84.2559 356.268C84.0004 356.681 83.6355 357.015 83.2012 357.235C82.767 357.454 82.2805 357.549 81.7954 357.509C81.3122 357.47 80.8493 357.299 80.4574 357.014C80.4559 357.013 80.4544 357.012 80.4529 357.011L2.56976 299.527C2.56746 299.525 2.56516 299.523 2.56286 299.522C2.23559 299.272 1.96986 298.95 1.78575 298.583C1.60095 298.213 1.50324 297.807 1.5 297.394L84.6496 186.796ZM164.401 141.157L163.419 140.023L164.4 141.158C164.401 141.158 164.401 141.157 164.401 141.157ZM157.062 141.16L158.041 140.023L157.059 141.157L157.062 141.16ZM5.85448 10.9659L6.82828 9.82501L5.84955 10.9617L5.85226 10.964C5.853 10.9647 5.85374 10.9653 5.85448 10.9659ZM1.5 12.9419V12.9351H0L1.49995 12.9473C1.49996 12.9455 1.49998 12.9437 1.5 12.9419Z" fill="#5A189A" fill-opacity="0.5" stroke="url(#paint0_linear_1856_3045)" stroke-width="3"/>
<path d="M264.933 60.9998C267.409 101.254 268.223 141.614 268.47 181.939L267.975 180.242C273.848 190.845 279.544 201.447 285.276 212.05C285.276 240.783 284.568 269.48 283.33 298.177C282.835 307.649 282.516 317.12 281.844 326.451C281.172 317.014 280.853 307.543 280.358 298.177C279.12 269.904 278.589 241.348 278.412 212.933L278.837 214.559C273.141 204.204 267.444 193.849 261.89 183.423L261.465 182.646V181.797C261.465 141.473 262.456 101.112 265.003 60.8584L264.933 60.9998Z" fill="#FFC14D"/>
<path d="M59.9498 61C62.4264 101.254 63.2401 141.614 63.4878 181.939C63.5459 182.224 63.5378 182.519 63.4642 182.801C63.3906 183.083 63.2535 183.344 63.0632 183.565C57.544 194.167 51.8125 204.346 46.1164 214.701L46.5409 213.075C46.5409 241.348 45.8333 269.904 44.595 298.319C44.1351 307.79 43.7813 317.262 43.1091 326.592C42.4369 317.156 42.1184 307.684 41.6231 298.319C40.3848 269.621 39.8541 240.924 39.6772 212.191C45.4088 201.589 51.1049 190.986 56.9779 180.384L56.5534 182.045C56.5534 141.72 57.544 101.36 60.0913 61.106L59.9498 61Z" fill="#00CAFF"/>
<path d="M260.147 56.0871L162.004 113.765H161.968L62.8697 57.6775L161.013 0L260.147 56.0871Z" fill="#9D4EDD"/>
<path d="M260.147 56.0872L261.102 169.816L162.888 227.565L161.968 113.765H162.004L260.147 56.0872Z" fill="#5A189A"/>
<path d="M161.968 113.765L162.888 227.565L63.825 171.442L62.8697 57.6775L161.968 113.765Z" fill="#5A189A"/>
<path d="M161.933 113.906L162.393 170.629L113.003 142.674L112.507 85.9508L161.933 113.906Z" fill="#7B2CBF"/>
<path d="M161.968 113.729L162.039 170.629L211.323 142.144L211.288 84.8198L161.968 113.729Z" fill="#7B2CBF"/>
<path d="M211.323 141.826L162.393 170.594L112.967 142.639L161.897 113.871L211.323 141.826Z" fill="#9D4EDD"/>
<path d="M162.11 114.083L112.72 86.1274L161.65 57.3594" fill="#7B2CBF"/>
<path d="M162.11 114.083H162.145L211.075 85.3146L161.65 57.3594" fill="#7B2CBF"/>
<path d="M113.215 85.9508C115.53 104.357 115.422 122.988 112.897 141.366C110.564 122.961 110.671 104.328 113.215 85.9508Z" fill="#00CAFF"/>
<path d="M211.924 84.2998C214.265 102.715 214.182 121.357 211.677 139.751C209.317 121.337 209.401 102.692 211.924 84.2998Z" fill="#FFC14D"/>
<path d="M161.65 57.9956C163.39 76.4426 163.307 95.0158 161.402 113.447C159.68 94.9988 159.763 76.4273 161.65 57.9956Z" fill="#5A189A"/>
<path d="M159.209 115.39C145.453 125.586 130.652 134.294 115.055 141.366C128.805 131.162 143.607 122.454 159.209 115.39Z" fill="#5A189A"/>
<path d="M163.914 114.79C179.591 121.815 194.476 130.487 208.316 140.66C192.638 133.634 177.754 124.962 163.914 114.79Z" fill="#5A189A"/>
<defs>
<linearGradient id="paint0_linear_1856_3045" x1="12.8386" y1="35.0974" x2="331.724" y2="49.0646" gradientUnits="userSpaceOnUse">
<stop stop-color="#9D4EDD"/>
<stop offset="1" stop-color="#5A189A"/>
</linearGradient>
</defs>
</svg>
