<svg width="117" height="124" viewBox="0 0 117 124" fill="none" xmlns="http://www.w3.org/2000/svg">
<g filter="url(#filter0_d_820_1489)">
<path d="M94.3483 92.2894L74.7076 101.114C74.5496 101.185 74.376 101.216 74.2029 101.203C74.0298 101.191 73.8627 101.135 73.7169 101.042C73.5711 100.948 73.4514 100.82 73.3686 100.668C73.2859 100.517 73.2429 100.347 73.2435 100.175V58.9581C73.248 58.7509 73.1899 58.547 73.0766 58.3729C72.9633 58.1988 72.8 58.0624 72.6077 57.9813C72.4155 57.9002 72.2032 57.8782 71.9983 57.9181C71.7933 57.958 71.6051 58.0579 71.4579 58.205C66.8577 62.4363 60.8169 64.7873 54.5446 64.7873C48.2724 64.7873 42.2316 62.4363 37.6313 58.205L37.5242 58.0721C37.377 57.925 37.1888 57.8251 36.9839 57.7852C36.7789 57.7453 36.5666 57.7673 36.3744 57.8484C36.1822 57.9295 36.0189 58.0659 35.9055 58.24C35.7922 58.4141 35.7341 58.618 35.7387 58.8252V100.972C35.7379 101.163 35.6839 101.35 35.5827 101.513C35.4815 101.675 35.3371 101.807 35.1653 101.893C34.9935 101.979 34.8011 102.017 34.6092 102.001C34.4174 101.986 34.2336 101.918 34.0781 101.805L14.4196 87.3899C14.2901 87.2922 14.1849 87.1663 14.1121 87.0219C14.0394 86.8775 14.001 86.7185 14 86.557V15.2428C14.0016 15.0454 14.06 14.8526 14.1683 14.687C14.2765 14.5214 14.4302 14.3899 14.6112 14.308C14.7921 14.2261 14.9929 14.1972 15.1899 14.2247C15.3868 14.2522 15.5718 14.3349 15.723 14.4631L53.8795 47.1034C54.0678 47.2655 54.3088 47.3547 54.558 47.3547C54.8073 47.3547 55.0482 47.2655 55.2365 47.1034L64.3248 39.2889C67.7709 36.3355 71.2556 33.332 74.779 30.2782C78.3024 27.2245 81.7872 24.2416 85.2332 21.3296C88.0365 18.9669 90.7147 16.6781 93.268 14.4631C93.4198 14.3344 93.6056 14.2516 93.8034 14.2244C94.0012 14.1973 94.2026 14.2269 94.3839 14.3099C94.5652 14.3929 94.7188 14.5257 94.8264 14.6926C94.934 14.8595 94.9911 15.0535 94.9911 15.2516V91.3503C94.9887 91.5522 94.9265 91.7489 94.8122 91.9159C94.6979 92.083 94.5365 92.2129 94.3483 92.2894Z" fill="#5A189A" fill-opacity="0.5" shape-rendering="crispEdges"/>
<path d="M94.1599 91.8263L94.1516 91.8297L94.1434 91.8334L74.5027 100.658L74.502 100.658C74.4199 100.695 74.3296 100.711 74.2394 100.705C74.1492 100.698 74.0624 100.669 73.9869 100.621L73.7169 101.042L73.9869 100.621C73.9114 100.572 73.8498 100.506 73.8074 100.428C73.7651 100.351 73.7432 100.264 73.7435 100.177V100.175V58.9631C73.749 58.6571 73.6626 58.3567 73.4957 58.1002C73.3276 57.842 73.0859 57.6403 72.8021 57.5206C72.5183 57.4009 72.2051 57.3685 71.9028 57.4273C71.6042 57.4854 71.3292 57.63 71.1126 57.8433C66.6059 61.9855 60.6889 64.2873 54.5446 64.2873C48.4097 64.2873 42.5013 61.9924 37.9971 57.8621L37.9135 57.7583L37.8966 57.7374L37.8777 57.7185C37.6598 57.5007 37.3817 57.3532 37.0793 57.2944C36.777 57.2356 36.4638 57.268 36.1801 57.3877C35.8963 57.5074 35.6545 57.7091 35.4865 57.9673C35.3195 58.2238 35.2331 58.5242 35.2387 58.8302V100.971C35.2381 101.069 35.2104 101.165 35.1583 101.249C35.106 101.333 35.031 101.401 34.9411 101.446C34.8513 101.491 34.7503 101.511 34.6496 101.503C34.5493 101.495 34.4535 101.459 34.3727 101.401C34.3723 101.401 34.3719 101.401 34.3716 101.4L14.7206 86.9906C14.7199 86.9901 14.7192 86.9895 14.7185 86.989C14.6509 86.9376 14.5964 86.8718 14.5587 86.7969C14.5207 86.7216 14.5007 86.639 14.5 86.5552V15.2452C14.5012 15.1444 14.5311 15.0457 14.5867 14.9606C14.6427 14.8749 14.7226 14.8064 14.8173 14.7636C14.912 14.7207 15.0174 14.7055 15.1208 14.7199C15.2239 14.7343 15.3204 14.7775 15.399 14.8439C15.3992 14.8441 15.3994 14.8443 15.3996 14.8445L53.5534 47.4824C53.8327 47.7228 54.1895 47.8547 54.558 47.8547C54.9266 47.8547 55.2833 47.7228 55.5627 47.4824L64.6502 39.6685C68.0969 36.7146 71.5824 33.7104 75.1065 30.6561C78.6284 27.6036 82.1115 24.6221 85.5559 21.7115C88.3597 19.3484 91.0388 17.0589 93.5931 14.8431C93.6718 14.7769 93.7683 14.7339 93.8714 14.7198C93.9753 14.7055 94.081 14.7211 94.1759 14.7646C94.2707 14.808 94.3505 14.8772 94.4062 14.9635C94.4618 15.0498 94.4911 15.1497 94.4911 15.2515V15.2516V91.3467C94.4894 91.4488 94.4578 91.5485 94.3996 91.6335C94.3409 91.7193 94.2577 91.7865 94.1599 91.8263Z" stroke="url(#paint0_linear_820_1489)" shape-rendering="crispEdges"/>
</g>
<path d="M80.5998 27.2924C81.2247 37.384 81.43 47.5021 81.4925 57.6114L81.3675 57.1861C82.8495 59.8441 84.2868 62.5021 85.7331 65.1601C85.7331 72.3633 85.5546 79.5576 85.2421 86.7519C85.1171 89.1264 85.0368 91.5009 84.8671 93.84C84.6975 91.4743 84.6172 89.0998 84.4922 86.7519C84.1797 79.6639 84.0458 72.505 84.0012 65.3816L84.1083 65.7892C82.671 63.1932 81.2336 60.5972 79.832 57.9835L79.7249 57.7886V57.5759C79.7249 47.4666 79.9748 37.3485 80.6176 27.257L80.5998 27.2924Z" fill="#FFC14D"/>
<path d="M29.6321 27.2924C30.257 37.3839 30.4624 47.502 30.5249 57.6113C30.5395 57.6829 30.5375 57.7568 30.5189 57.8274C30.5004 57.8981 30.4657 57.9636 30.4177 58.0189C29.025 60.6769 27.5788 63.2286 26.1414 65.8246L26.2486 65.417C26.2486 72.505 26.07 79.6639 25.7575 86.7873C25.6415 89.1618 25.5522 91.5363 25.3826 93.8754C25.213 91.5097 25.1326 89.1352 25.0076 86.7873C24.6952 79.593 24.5612 72.3987 24.5166 65.1955C25.9629 62.5375 27.4002 59.8795 28.8822 57.2215L28.7751 57.6379C28.7751 47.5286 29.025 37.4105 29.6678 27.3189L29.6321 27.2924Z" fill="#00CAFF"/>
<path d="M79.6445 26.0608L54.8794 40.5204H54.8704L29.8643 26.4595L54.6294 12L79.6445 26.0608Z" fill="#9D4EDD"/>
<path d="M79.6447 26.0608L79.8857 54.5723L55.1027 69.0496L54.8706 40.5203H54.8795L79.6447 26.0608Z" fill="#5A189A"/>
<path d="M54.8704 40.5204L55.1025 69.0497L30.1053 54.98L29.8643 26.4596L54.8704 40.5204Z" fill="#5A189A"/>
<path d="M54.8615 40.5559L54.9775 54.7762L42.5146 47.7679L42.3896 33.5476L54.8615 40.5559Z" fill="#7B2CBF"/>
<path d="M54.8706 40.5115L54.8885 54.7761L67.3246 47.635L67.3157 33.264L54.8706 40.5115Z" fill="#7B2CBF"/>
<path d="M67.3246 47.5553L54.9777 54.7673L42.5059 47.759L54.8527 40.547L67.3246 47.5553Z" fill="#9D4EDD"/>
<path d="M54.9063 40.6001L42.4434 33.5918L54.7902 26.3798" fill="#7B2CBF"/>
<path d="M54.9061 40.6001H54.915L67.2619 33.388L54.79 26.3798" fill="#7B2CBF"/>
<path d="M42.5684 33.5476C43.1524 38.1621 43.1254 42.8326 42.4881 47.4401C41.8995 42.8259 41.9265 38.1548 42.5684 33.5476Z" fill="#00CAFF"/>
<path d="M67.4762 32.8831C68.067 37.4997 68.0459 42.1732 67.4137 46.7844C66.8184 42.1681 66.8395 37.494 67.4762 32.8831Z" fill="#FFC14D"/>
<path d="M54.7902 26.5393C55.2292 31.1639 55.2083 35.8201 54.7277 40.4407C54.2932 35.8159 54.3141 31.1601 54.7902 26.5393Z" fill="#5A189A"/>
<path d="M54.1741 40.928C50.703 43.4841 46.9682 45.667 43.0325 47.4401C46.5022 44.8819 50.2372 42.6989 54.1741 40.928Z" fill="#5A189A"/>
<path d="M55.3616 40.7773C59.3175 42.5386 63.0734 44.7127 66.5657 47.2629C62.6097 45.5016 58.8539 43.3275 55.3616 40.7773Z" fill="#5A189A"/>
<defs>
<filter id="filter0_d_820_1489" x="0" y="0.2146" width="116.991" height="123.79" filterUnits="userSpaceOnUse" color-interpolation-filters="sRGB">
<feFlood flood-opacity="0" result="BackgroundImageFix"/>
<feColorMatrix in="SourceAlpha" type="matrix" values="0 0 0 0 0 0 0 0 0 0 0 0 0 0 0 0 0 0 127 0" result="hardAlpha"/>
<feOffset dx="4" dy="4"/>
<feGaussianBlur stdDeviation="9"/>
<feComposite in2="hardAlpha" operator="out"/>
<feColorMatrix type="matrix" values="0 0 0 0 0.141176 0 0 0 0 0 0 0 0 0 0.27451 0 0 0 0.3 0"/>
<feBlend mode="normal" in2="BackgroundImageFix" result="effect1_dropShadow_820_1489"/>
<feBlend mode="normal" in="SourceGraphic" in2="effect1_dropShadow_820_1489" result="shape"/>
</filter>
<linearGradient id="paint0_linear_820_1489" x1="17.2396" y1="20.7988" x2="97.704" y2="24.3462" gradientUnits="userSpaceOnUse">
<stop stop-color="#9D4EDD"/>
<stop offset="1" stop-color="#5A189A"/>
</linearGradient>
</defs>
</svg>
